<svg width="271" height="202" viewBox="0 0 271 202" fill="none" xmlns="http://www.w3.org/2000/svg">
<path d="M9.04275 71.1175C9.04275 71.1175 -31.238 168.821 61.6209 188.505C154.48 208.189 232.124 209.174 252.902 159.471C273.679 109.767 283.887 57.6422 241.238 27.3879C198.59 -2.86045 56.0642 -27.3164 9.04275 71.1175Z" fill="#24285B"/>
<path d="M87.557 56.7649C89.5885 56.7649 91.2354 55.1181 91.2354 53.0866C91.2354 51.0551 89.5885 49.4082 87.557 49.4082C85.5255 49.4082 83.8787 51.0551 83.8787 53.0866C83.8787 55.1181 85.5255 56.7649 87.557 56.7649Z" fill="#FFD200"/>
<path d="M176.049 19.0591C177.523 19.0591 178.719 17.8638 178.719 16.3894C178.719 14.915 177.523 13.7197 176.049 13.7197C174.574 13.7197 173.379 14.915 173.379 16.3894C173.379 17.8638 174.574 19.0591 176.049 19.0591Z" fill="white"/>
<path d="M218.093 140.97C219.034 140.97 219.796 140.207 219.796 139.267C219.796 138.326 219.034 137.563 218.093 137.563C217.152 137.563 216.39 138.326 216.39 139.267C216.39 140.207 217.152 140.97 218.093 140.97Z" fill="white"/>
<path d="M9.83414 110.844C10.7748 110.844 11.5374 110.081 11.5374 109.141C11.5374 108.2 10.7748 107.438 9.83414 107.438C8.89344 107.438 8.13086 108.2 8.13086 109.141C8.13086 110.081 8.89344 110.844 9.83414 110.844Z" fill="white"/>
<path d="M113.734 19.2943C114.675 19.2943 115.437 18.5317 115.437 17.591C115.437 16.6503 114.675 15.8877 113.734 15.8877C112.793 15.8877 112.031 16.6503 112.031 17.591C112.031 18.5317 112.793 19.2943 113.734 19.2943Z" fill="white"/>
<path d="M76.5761 162.213C77.5168 162.213 78.2794 161.451 78.2794 160.51C78.2794 159.569 77.5168 158.807 76.5761 158.807C75.6354 158.807 74.8728 159.569 74.8728 160.51C74.8728 161.451 75.6354 162.213 76.5761 162.213Z" fill="white"/>
<path d="M34.7793 159.21C35.0862 159.21 35.335 158.961 35.335 158.654C35.335 158.347 35.0862 158.099 34.7793 158.099C34.4724 158.099 34.2236 158.347 34.2236 158.654C34.2236 158.961 34.4724 159.21 34.7793 159.21Z" fill="white"/>
<path d="M59.4949 35.2217C59.8018 35.2217 60.0506 34.9729 60.0506 34.666C60.0506 34.3591 59.8018 34.1104 59.4949 34.1104C59.188 34.1104 58.9392 34.3591 58.9392 34.666C58.9392 34.9729 59.188 35.2217 59.4949 35.2217Z" fill="white"/>
<path d="M155.785 42.5948C156.092 42.5948 156.34 42.346 156.34 42.0391C156.34 41.7322 156.092 41.4834 155.785 41.4834C155.478 41.4834 155.229 41.7322 155.229 42.0391C155.229 42.346 155.478 42.5948 155.785 42.5948Z" fill="white"/>
<path d="M90.8909 134.968C91.1978 134.968 91.4466 134.719 91.4466 134.412C91.4466 134.105 91.1978 133.856 90.8909 133.856C90.584 133.856 90.3352 134.105 90.3352 134.412C90.3352 134.719 90.584 134.968 90.8909 134.968Z" fill="white"/>
<path d="M182.705 86.6827C183.012 86.6827 183.261 86.4339 183.261 86.127C183.261 85.8201 183.012 85.5713 182.705 85.5713C182.398 85.5713 182.149 85.8201 182.149 86.127C182.149 86.4339 182.398 86.6827 182.705 86.6827Z" fill="white"/>
<path d="M48.4297 101.075C48.7366 101.075 48.9854 100.826 48.9854 100.52C48.9854 100.213 48.7366 99.9639 48.4297 99.9639C48.1228 99.9639 47.874 100.213 47.874 100.52C47.874 100.826 48.1228 101.075 48.4297 101.075Z" fill="white"/>
<path d="M251.168 100.694C251.475 100.694 251.724 100.446 251.724 100.139C251.724 99.8318 251.475 99.583 251.168 99.583C250.861 99.583 250.613 99.8318 250.613 100.139C250.613 100.446 250.861 100.694 251.168 100.694Z" fill="white"/>
<path d="M239.01 32.3877C239.317 32.3877 239.566 32.1389 239.566 31.832C239.566 31.5252 239.317 31.2764 239.01 31.2764C238.703 31.2764 238.455 31.5252 238.455 31.832C238.455 32.1389 238.703 32.3877 239.01 32.3877Z" fill="white"/>
<path d="M214.487 176.171C214.794 176.171 215.043 175.922 215.043 175.615C215.043 175.308 214.794 175.06 214.487 175.06C214.18 175.06 213.932 175.308 213.932 175.615C213.932 175.922 214.18 176.171 214.487 176.171Z" fill="white"/>
<path d="M169.169 149.486C169.476 149.486 169.725 149.238 169.725 148.931C169.725 148.624 169.476 148.375 169.169 148.375C168.862 148.375 168.614 148.624 168.614 148.931C168.614 149.238 168.862 149.486 169.169 149.486Z" fill="white"/>
<path d="M251.561 169.389C261.218 169.389 269.047 161.56 269.047 151.903C269.047 142.246 261.218 134.417 251.561 134.417C241.904 134.417 234.075 142.246 234.075 151.903C234.075 161.56 241.904 169.389 251.561 169.389Z" fill="#68E1FD"/>
<g opacity="0.08">
<path d="M262.871 148.501C264.041 146.894 263.266 144.336 261.141 142.79C259.016 141.243 256.345 141.292 255.175 142.899C254.005 144.507 254.779 147.064 256.904 148.611C259.029 150.157 261.701 150.108 262.871 148.501Z" fill="#000001"/>
</g>
<g opacity="0.08">
<path d="M247.968 145.71C249.956 145.71 251.567 144.49 251.567 142.986C251.567 141.481 249.956 140.262 247.968 140.262C245.979 140.262 244.368 141.481 244.368 142.986C244.368 144.49 245.979 145.71 247.968 145.71Z" fill="#000001"/>
</g>
<path d="M27.1627 91.1642C39.1215 91.1642 48.8161 81.4697 48.8161 69.5108C48.8161 57.552 39.1215 47.8574 27.1627 47.8574C15.2038 47.8574 5.50928 57.552 5.50928 69.5108C5.50928 81.4697 15.2038 91.1642 27.1627 91.1642Z" fill="#68E1FD"/>
<g opacity="0.08">
<path d="M29.1194 62.0103C32.3451 61.5684 34.6887 59.2303 34.3542 56.788C34.0196 54.3456 31.1335 52.7239 27.9079 53.1658C24.6823 53.6076 22.3386 55.9457 22.6732 58.3881C23.0077 60.8304 25.8938 62.4522 29.1194 62.0103Z" fill="#000001"/>
</g>
<g opacity="0.08">
<path d="M18.6417 67.0607C20.4167 65.3549 20.8102 62.8841 19.5204 61.542C18.2307 60.1998 15.7462 60.4947 13.9711 62.2005C12.196 63.9062 11.8026 66.3771 13.0924 67.7192C14.3821 69.0613 16.8666 68.7665 18.6417 67.0607Z" fill="#000001"/>
</g>
</svg>
