<svg width="449" height="332" viewBox="0 0 449 332" fill="none" xmlns="http://www.w3.org/2000/svg">
<path d="M14.7404 116.61C14.7404 116.61 -51.9496 278.37 101.79 310.96C255.53 343.55 384.08 345.18 418.48 262.89C452.88 180.6 469.78 94.3002 399.17 44.2102C328.56 -5.86983 92.5904 -46.3598 14.7404 116.61Z" fill="#24285B"/>
<path d="M144.731 92.8499C148.094 92.8499 150.821 90.1233 150.821 86.7599C150.821 83.3965 148.094 80.6699 144.731 80.6699C141.367 80.6699 138.641 83.3965 138.641 86.7599C138.641 90.1233 141.367 92.8499 144.731 92.8499Z" fill="#FFD200"/>
<path d="M291.24 30.4201C293.681 30.4201 295.66 28.4412 295.66 26.0001C295.66 23.559 293.681 21.5801 291.24 21.5801C288.799 21.5801 286.82 23.559 286.82 26.0001C286.82 28.4412 288.799 30.4201 291.24 30.4201Z" fill="white"/>
<path d="M360.85 232.26C362.408 232.26 363.67 230.998 363.67 229.44C363.67 227.883 362.408 226.62 360.85 226.62C359.293 226.62 358.03 227.883 358.03 229.44C358.03 230.998 359.293 232.26 360.85 232.26Z" fill="white"/>
<path d="M16.0505 182.38C17.6079 182.38 18.8705 181.118 18.8705 179.56C18.8705 178.003 17.6079 176.74 16.0505 176.74C14.493 176.74 13.2305 178.003 13.2305 179.56C13.2305 181.118 14.493 182.38 16.0505 182.38Z" fill="white"/>
<path d="M188.07 30.8099C189.627 30.8099 190.89 29.5474 190.89 27.9899C190.89 26.4325 189.627 25.1699 188.07 25.1699C186.513 25.1699 185.25 26.4325 185.25 27.9899C185.25 29.5474 186.513 30.8099 188.07 30.8099Z" fill="white"/>
<path d="M126.55 267.43C128.108 267.43 129.37 266.167 129.37 264.61C129.37 263.053 128.108 261.79 126.55 261.79C124.993 261.79 123.73 263.053 123.73 264.61C123.73 266.167 124.993 267.43 126.55 267.43Z" fill="white"/>
<path d="M57.3507 262.46C57.8588 262.46 58.2707 262.048 58.2707 261.54C58.2707 261.032 57.8588 260.62 57.3507 260.62C56.8426 260.62 56.4307 261.032 56.4307 261.54C56.4307 262.048 56.8426 262.46 57.3507 262.46Z" fill="white"/>
<path d="M98.2706 57.1798C98.7787 57.1798 99.1906 56.768 99.1906 56.2598C99.1906 55.7517 98.7787 55.3398 98.2706 55.3398C97.7625 55.3398 97.3506 55.7517 97.3506 56.2598C97.3506 56.768 97.7625 57.1798 98.2706 57.1798Z" fill="white"/>
<path d="M257.691 69.3898C258.199 69.3898 258.611 68.9779 258.611 68.4698C258.611 67.9617 258.199 67.5498 257.691 67.5498C257.182 67.5498 256.771 67.9617 256.771 68.4698C256.771 68.9779 257.182 69.3898 257.691 69.3898Z" fill="white"/>
<path d="M150.25 222.32C150.758 222.32 151.17 221.909 151.17 221.4C151.17 220.892 150.758 220.48 150.25 220.48C149.742 220.48 149.33 220.892 149.33 221.4C149.33 221.909 149.742 222.32 150.25 222.32Z" fill="white"/>
<path d="M302.261 142.38C302.769 142.38 303.181 141.968 303.181 141.46C303.181 140.952 302.769 140.54 302.261 140.54C301.753 140.54 301.341 140.952 301.341 141.46C301.341 141.968 301.753 142.38 302.261 142.38Z" fill="white"/>
<path d="M79.9503 166.21C80.4584 166.21 80.8703 165.798 80.8703 165.29C80.8703 164.782 80.4584 164.37 79.9503 164.37C79.4422 164.37 79.0303 164.782 79.0303 165.29C79.0303 165.798 79.4422 166.21 79.9503 166.21Z" fill="white"/>
<path d="M415.61 165.58C416.119 165.58 416.53 165.168 416.53 164.66C416.53 164.152 416.119 163.74 415.61 163.74C415.102 163.74 414.69 164.152 414.69 164.66C414.69 165.168 415.102 165.58 415.61 165.58Z" fill="white"/>
<path d="M395.481 52.4904C395.989 52.4904 396.401 52.0785 396.401 51.5704C396.401 51.0623 395.989 50.6504 395.481 50.6504C394.972 50.6504 394.561 51.0623 394.561 51.5704C394.561 52.0785 394.972 52.4904 395.481 52.4904Z" fill="white"/>
<path d="M354.881 290.54C355.389 290.54 355.801 290.128 355.801 289.62C355.801 289.112 355.389 288.7 354.881 288.7C354.373 288.7 353.961 289.112 353.961 289.62C353.961 290.128 354.373 290.54 354.881 290.54Z" fill="white"/>
<path d="M279.851 246.361C280.359 246.361 280.771 245.949 280.771 245.441C280.771 244.932 280.359 244.521 279.851 244.521C279.343 244.521 278.931 244.932 278.931 245.441C278.931 245.949 279.343 246.361 279.851 246.361Z" fill="white"/>
<path d="M358.83 136.78C383.086 136.78 402.75 117.117 402.75 92.8604C402.75 68.6041 383.086 48.9404 358.83 48.9404C334.574 48.9404 314.91 68.6041 314.91 92.8604C314.91 117.117 334.574 136.78 358.83 136.78Z" fill="#FFD200"/>
<path d="M318.041 76.5605C318.041 76.5605 291.101 77.0205 289.301 94.8805C287.501 112.741 372.041 126.701 402.741 123.101C433.441 119.501 436.001 103.311 402.741 89.3306C402.741 89.3306 405.401 106.321 382.541 104.961C355.651 103.371 306.681 101.191 318.031 76.5605H318.041Z" fill="#FFD200"/>
<g opacity="0.44">
<path d="M318.041 76.5605C318.041 76.5605 291.101 77.0205 289.301 94.8805C287.501 112.741 372.041 126.701 402.741 123.101C433.441 119.501 436.001 103.311 402.741 89.3306C402.741 89.3306 405.401 106.321 382.541 104.961C355.651 103.371 306.681 101.191 318.031 76.5605H318.041Z" fill="white"/>
</g>
<g opacity="0.08">
<path d="M351.021 69.12C356.367 69.12 360.701 65.8382 360.701 61.79C360.701 57.7417 356.367 54.46 351.021 54.46C345.675 54.46 341.341 57.7417 341.341 61.79C341.341 65.8382 345.675 69.12 351.021 69.12Z" fill="#000001"/>
</g>
<g opacity="0.08">
<path d="M378.554 67.7703C380.215 65.4885 379.115 61.8577 376.096 59.6606C373.078 57.4635 369.284 57.5321 367.623 59.8139C365.963 62.0956 367.063 65.7264 370.082 67.9235C373.1 70.1206 376.894 70.052 378.554 67.7703Z" fill="#000001"/>
</g>
<g opacity="0.08">
<path d="M363.121 79.18C365.943 79.18 368.231 77.4518 368.231 75.32C368.231 73.1881 365.943 71.46 363.121 71.46C360.299 71.46 358.011 73.1881 358.011 75.32C358.011 77.4518 360.299 79.18 363.121 79.18Z" fill="#000001"/>
</g>
<path d="M416.261 279.31C432.249 279.31 445.211 266.349 445.211 250.36C445.211 234.371 432.249 221.41 416.261 221.41C400.272 221.41 387.311 234.371 387.311 250.36C387.311 266.349 400.272 279.31 416.261 279.31Z" fill="#68E1FD"/>
<g opacity="0.08">
<path d="M434.986 244.73C436.923 242.069 435.641 237.835 432.122 235.274C428.604 232.713 424.181 232.794 422.244 235.456C420.307 238.117 421.589 242.351 425.107 244.912C428.626 247.473 433.049 247.392 434.986 244.73Z" fill="#000001"/>
</g>
<g opacity="0.08">
<path d="M410.311 240.11C413.602 240.11 416.271 238.091 416.271 235.6C416.271 233.109 413.602 231.09 410.311 231.09C407.019 231.09 404.351 233.109 404.351 235.6C404.351 238.091 407.019 240.11 410.311 240.11Z" fill="#000001"/>
</g>
<path d="M44.7406 149.801C64.54 149.801 80.5906 133.75 80.5906 113.951C80.5906 94.1512 64.54 78.1006 44.7406 78.1006C24.9412 78.1006 8.89062 94.1512 8.89062 113.951C8.89062 133.75 24.9412 149.801 44.7406 149.801Z" fill="#68E1FD"/>
<g opacity="0.08">
<path d="M47.9793 101.531C53.3197 100.799 57.2 96.928 56.646 92.8844C56.0921 88.8407 51.3138 86.1558 45.9734 86.8873C40.633 87.6189 36.7527 91.4899 37.3066 95.5335C37.8606 99.5772 42.6389 102.262 47.9793 101.531Z" fill="#000001"/>
</g>
<g opacity="0.08">
<path d="M30.6331 109.895C33.5719 107.071 34.2233 102.98 32.0879 100.758C29.9526 98.5361 25.8392 99.0242 22.9003 101.848C19.9615 104.672 19.3101 108.763 21.4455 110.985C23.5808 113.207 27.6943 112.719 30.6331 109.895Z" fill="#000001"/>
</g>
</svg>
