<svg width="180" height="134" viewBox="0 0 180 134" fill="none" xmlns="http://www.w3.org/2000/svg">
<path d="M5.89588 47.0448C5.89588 47.0448 -20.7801 111.749 40.7159 124.785C102.212 137.821 153.632 138.473 167.392 105.557C181.152 72.6409 187.912 38.1208 159.668 18.0848C131.424 -1.94715 37.0359 -18.1431 5.89588 47.0448Z" fill="#24285B"/>
<path d="M57.8921 37.54C59.2374 37.54 60.3281 36.4493 60.3281 35.104C60.3281 33.7586 59.2374 32.668 57.8921 32.668C56.5467 32.668 55.4561 33.7586 55.4561 35.104C55.4561 36.4493 56.5467 37.54 57.8921 37.54Z" fill="#FFD200"/>
<path d="M116.496 12.5692C117.472 12.5692 118.264 11.7776 118.264 10.8012C118.264 9.82476 117.472 9.0332 116.496 9.0332C115.519 9.0332 114.728 9.82476 114.728 10.8012C114.728 11.7776 115.519 12.5692 116.496 12.5692Z" fill="white"/>
<path d="M144.34 93.3048C144.963 93.3048 145.468 92.7998 145.468 92.1768C145.468 91.5539 144.963 91.0488 144.34 91.0488C143.717 91.0488 143.212 91.5539 143.212 92.1768C143.212 92.7998 143.717 93.3048 144.34 93.3048Z" fill="white"/>
<path d="M6.41999 73.3537C7.04297 73.3537 7.54799 72.8486 7.54799 72.2257C7.54799 71.6027 7.04297 71.0977 6.41999 71.0977C5.79701 71.0977 5.29199 71.6027 5.29199 72.2257C5.29199 72.8486 5.79701 73.3537 6.41999 73.3537Z" fill="white"/>
<path d="M75.2279 12.7248C75.8508 12.7248 76.3559 12.2197 76.3559 11.5968C76.3559 10.9738 75.8508 10.4688 75.2279 10.4688C74.6049 10.4688 74.0999 10.9738 74.0999 11.5968C74.0999 12.2197 74.6049 12.7248 75.2279 12.7248Z" fill="white"/>
<path d="M50.6199 107.373C51.2429 107.373 51.7479 106.868 51.7479 106.245C51.7479 105.622 51.2429 105.117 50.6199 105.117C49.997 105.117 49.4919 105.622 49.4919 106.245C49.4919 106.868 49.997 107.373 50.6199 107.373Z" fill="white"/>
<path d="M22.9398 105.384C23.143 105.384 23.3078 105.22 23.3078 105.016C23.3078 104.813 23.143 104.648 22.9398 104.648C22.7365 104.648 22.5718 104.813 22.5718 105.016C22.5718 105.22 22.7365 105.384 22.9398 105.384Z" fill="white"/>
<path d="M39.3079 23.2731C39.5112 23.2731 39.6759 23.1084 39.6759 22.9051C39.6759 22.7019 39.5112 22.5371 39.3079 22.5371C39.1047 22.5371 38.9399 22.7019 38.9399 22.9051C38.9399 23.1084 39.1047 23.2731 39.3079 23.2731Z" fill="white"/>
<path d="M103.076 28.1559C103.279 28.1559 103.444 27.9912 103.444 27.7879C103.444 27.5847 103.279 27.4199 103.076 27.4199C102.873 27.4199 102.708 27.5847 102.708 27.7879C102.708 27.9912 102.873 28.1559 103.076 28.1559Z" fill="white"/>
<path d="M60.0999 89.3298C60.3032 89.3298 60.4679 89.165 60.4679 88.9617C60.4679 88.7585 60.3032 88.5938 60.0999 88.5938C59.8967 88.5938 59.7319 88.7585 59.7319 88.9617C59.7319 89.165 59.8967 89.3298 60.0999 89.3298Z" fill="white"/>
<path d="M120.904 57.3532C121.107 57.3532 121.272 57.1884 121.272 56.9852C121.272 56.782 121.107 56.6172 120.904 56.6172C120.701 56.6172 120.536 56.782 120.536 56.9852C120.536 57.1884 120.701 57.3532 120.904 57.3532Z" fill="white"/>
<path d="M31.9798 66.8844C32.1831 66.8844 32.3478 66.7197 32.3478 66.5164C32.3478 66.3132 32.1831 66.1484 31.9798 66.1484C31.7766 66.1484 31.6118 66.3132 31.6118 66.5164C31.6118 66.7197 31.7766 66.8844 31.9798 66.8844Z" fill="white"/>
<path d="M166.244 66.6325C166.447 66.6325 166.612 66.4677 166.612 66.2645C166.612 66.0612 166.447 65.8965 166.244 65.8965C166.041 65.8965 165.876 66.0612 165.876 66.2645C165.876 66.4677 166.041 66.6325 166.244 66.6325Z" fill="white"/>
<path d="M158.192 21.3962C158.395 21.3962 158.56 21.2314 158.56 21.0282C158.56 20.8249 158.395 20.6602 158.192 20.6602C157.989 20.6602 157.824 20.8249 157.824 21.0282C157.824 21.2314 157.989 21.3962 158.192 21.3962Z" fill="white"/>
<path d="M141.952 116.617C142.155 116.617 142.32 116.452 142.32 116.249C142.32 116.046 142.155 115.881 141.952 115.881C141.749 115.881 141.584 116.046 141.584 116.249C141.584 116.452 141.749 116.617 141.952 116.617Z" fill="white"/>
<path d="M111.94 98.945C112.143 98.945 112.308 98.7802 112.308 98.577C112.308 98.3737 112.143 98.209 111.94 98.209C111.737 98.209 111.572 98.3737 111.572 98.577C111.572 98.7802 111.737 98.945 111.94 98.945Z" fill="white"/>
<path d="M143.532 55.1126C153.234 55.1126 161.1 47.2471 161.1 37.5446C161.1 27.842 153.234 19.9766 143.532 19.9766C133.829 19.9766 125.964 27.842 125.964 37.5446C125.964 47.2471 133.829 55.1126 143.532 55.1126Z" fill="white"/>
<path d="M127.216 31.0234C127.216 31.0234 116.44 31.2074 115.72 38.3514C115 45.4954 148.816 51.0794 161.096 49.6394C173.376 48.1994 174.4 41.7234 161.096 36.1314C161.096 36.1314 162.16 42.9274 153.016 42.3834C142.26 41.7474 122.672 40.8754 127.212 31.0234H127.216Z" fill="#FFD200"/>
<g opacity="0.44">
<path d="M127.216 31.0234C127.216 31.0234 116.44 31.2074 115.72 38.3514C115 45.4954 148.816 51.0794 161.096 49.6394C173.376 48.1994 174.4 41.7234 161.096 36.1314C161.096 36.1314 162.16 42.9274 153.016 42.3834C142.26 41.7474 122.672 40.8754 127.212 31.0234H127.216Z" fill="white"/>
</g>
<g opacity="0.08">
<path d="M140.408 28.0476C142.547 28.0476 144.28 26.7349 144.28 25.1156C144.28 23.4963 142.547 22.1836 140.408 22.1836C138.27 22.1836 136.536 23.4963 136.536 25.1156C136.536 26.7349 138.27 28.0476 140.408 28.0476Z" fill="#000001"/>
</g>
<g opacity="0.08">
<path d="M151.421 27.5085C152.086 26.5958 151.646 25.1435 150.438 24.2646C149.231 23.3858 147.713 23.4132 147.049 24.3259C146.385 25.2386 146.825 26.691 148.032 27.5698C149.24 28.4486 150.757 28.4212 151.421 27.5085Z" fill="#000001"/>
</g>
<g opacity="0.08">
<path d="M145.248 32.0724C146.377 32.0724 147.292 31.3811 147.292 30.5284C147.292 29.6756 146.377 28.9844 145.248 28.9844C144.119 28.9844 143.204 29.6756 143.204 30.5284C143.204 31.3811 144.119 32.0724 145.248 32.0724Z" fill="#000001"/>
</g>
<path d="M166.504 112.125C172.899 112.125 178.084 106.94 178.084 100.545C178.084 94.1494 172.899 88.9648 166.504 88.9648C160.108 88.9648 154.924 94.1494 154.924 100.545C154.924 106.94 160.108 112.125 166.504 112.125Z" fill="#68E1FD"/>
<g opacity="0.08">
<path d="M173.994 98.2912C174.769 97.2267 174.256 95.5332 172.848 94.5088C171.441 93.4843 169.672 93.5168 168.897 94.5813C168.122 95.6458 168.635 97.3393 170.043 98.3637C171.45 99.3882 173.219 99.3557 173.994 98.2912Z" fill="#000001"/>
</g>
<g opacity="0.08">
<path d="M164.124 96.4439C165.441 96.4439 166.508 95.6363 166.508 94.6399C166.508 93.6436 165.441 92.8359 164.124 92.8359C162.808 92.8359 161.74 93.6436 161.74 94.6399C161.74 95.6363 162.808 96.4439 164.124 96.4439Z" fill="#000001"/>
</g>
<path d="M17.8959 60.3206C25.8157 60.3206 32.2359 53.9004 32.2359 45.9806C32.2359 38.0609 25.8157 31.6406 17.8959 31.6406C9.97614 31.6406 3.55591 38.0609 3.55591 45.9806C3.55591 53.9004 9.97614 60.3206 17.8959 60.3206Z" fill="#68E1FD"/>
<g opacity="0.08">
<path d="M19.1917 41.013C21.3279 40.7204 22.88 39.172 22.6584 37.5545C22.4369 35.9371 20.5255 34.8631 18.3894 35.1557C16.2532 35.4483 14.7011 36.9967 14.9227 38.6142C15.1442 40.2316 17.0555 41.3056 19.1917 41.013Z" fill="#000001"/>
</g>
<g opacity="0.08">
<path d="M12.2528 44.3588C13.4284 43.2291 13.6889 41.5928 12.8348 40.704C11.9807 39.8152 10.3353 40.0104 9.15974 41.1401C7.98421 42.2698 7.72366 43.9061 8.5778 44.7949C9.43193 45.6837 11.0773 45.4885 12.2528 44.3588Z" fill="#000001"/>
</g>
</svg>
