<svg width="1078" height="574" viewBox="0 0 1078 574" fill="none" xmlns="http://www.w3.org/2000/svg">
<g clip-path="url(#clip0_1025_580)">
<rect y="564" width="1078" height="10" fill="#FFB6C4"/>
<mask id="mask0_1025_580" style="mask-type:alpha" maskUnits="userSpaceOnUse" x="0" y="0" width="1078" height="564">
<rect width="1078" height="564" fill="#D9D9D9"/>
</mask>
<g mask="url(#mask0_1025_580)">
<path d="M539 1061C836.681 1061 1078 838.291 1078 563.566C1078 288.841 836.681 66.1328 539 66.1328C241.319 66.1328 0 288.841 0 563.566C0 838.291 241.319 1061 539 1061Z" fill="#FFB6C4"/>
<path d="M280.448 496.833C340.401 496.75 388.942 453.384 388.868 399.975C388.793 346.565 340.133 303.335 280.179 303.418C220.227 303.501 171.686 346.867 171.76 400.277C171.834 453.686 220.495 496.917 280.448 496.833Z" fill="white"/>
<path d="M283.249 467.778C318.921 467.729 347.797 437.725 347.746 400.759C347.694 363.797 318.734 333.873 283.064 333.922C247.392 333.971 218.517 363.975 218.568 400.94C218.62 437.903 247.578 467.826 283.249 467.778Z" fill="#24285B"/>
<g opacity="0.22">
<path d="M299.066 408.397C316.096 408.374 329.882 394.046 329.857 376.4C329.834 358.751 316.006 344.463 298.977 344.486C281.947 344.509 268.162 358.837 268.186 376.483C268.211 394.132 282.036 408.42 299.066 408.397Z" fill="white"/>
</g>
<path d="M541.564 459.454C601.518 459.37 650.057 416.005 649.985 362.595C649.91 309.186 601.248 265.956 541.297 266.039C481.343 266.122 432.804 309.488 432.876 362.897C432.951 416.306 481.613 459.537 541.564 459.454Z" fill="white"/>
<path d="M536.22 427.522C571.889 427.473 600.765 397.469 600.713 360.503C600.664 323.541 571.705 293.617 536.033 293.666C500.361 293.715 471.485 323.719 471.537 360.684C471.589 397.647 500.548 427.571 536.22 427.522Z" fill="#24285B"/>
<g opacity="0.22">
<path d="M552.037 368.141C569.066 368.118 582.85 353.79 582.827 336.144C582.801 318.495 568.977 304.207 551.948 304.23C534.918 304.253 521.131 318.581 521.157 336.227C521.18 353.876 535.007 368.164 552.037 368.141Z" fill="white"/>
</g>
<path d="M800.284 496.833C860.235 496.75 908.777 453.384 908.705 399.975C908.63 346.565 859.968 303.335 800.017 303.418C740.063 303.501 691.521 346.867 691.596 400.277C691.671 453.686 740.333 496.917 800.284 496.833Z" fill="white"/>
<path d="M815.063 470.653C850.732 470.604 879.608 440.6 879.556 403.634C879.507 366.672 850.548 336.748 814.876 336.797C779.204 336.846 750.328 366.85 750.38 403.815C750.432 440.778 779.391 470.701 815.063 470.653Z" fill="#24285B"/>
<g opacity="0.22">
<path d="M830.879 411.272C847.909 411.249 861.693 396.921 861.67 379.275C861.644 361.626 847.82 347.338 830.79 347.361C813.761 347.384 799.974 361.712 800 379.358C800.023 397.007 813.85 411.295 830.879 411.272Z" fill="white"/>
</g>
<path d="M96.3013 100.637C124.085 100.637 146.608 78.1085 146.608 50.3184C146.608 22.5283 124.085 0 96.3013 0C68.5177 0 45.9946 22.5283 45.9946 50.3184C45.9946 78.1085 68.5177 100.637 96.3013 100.637Z" fill="#FFB6C4"/>
<path d="M97.7388 56.0684C176.792 61.819 221.349 191.209 221.349 191.209" stroke="#FFB6C4" stroke-width="32"/>
<path d="M981.699 100.637C953.915 100.637 931.392 78.1085 931.392 50.3184C931.392 22.5283 953.915 0 981.699 0C1009.48 0 1032.01 22.5283 1032.01 50.3184C1032.01 78.1085 1009.48 100.637 981.699 100.637Z" fill="#FFB6C4"/>
<path d="M980.261 56.0684C901.208 61.819 856.651 191.209 856.651 191.209" stroke="#FFB6C4" stroke-width="32"/>
</g>
</g>
<defs>
<clipPath id="clip0_1025_580">
<rect width="1078" height="574" fill="white"/>
</clipPath>
</defs>
</svg>
