<svg width="670" height="407" viewBox="0 0 670 407" fill="none" xmlns="http://www.w3.org/2000/svg">
<path d="M232.512 88.5017C184.653 110.3 46 31.0073 23.0125 81.5017C-1.34263 135 81.4179 154.623 77.0126 229.501C72.6851 303.054 -21.419 318.036 4.51253 387.002C28.0126 449.501 205.254 340.66 334.013 346.502C456.787 352.072 605.525 422.002 622.512 375.001C639.5 328 563.687 308 576.512 243.002C587.76 186 692 126.5 665.512 74.5014C639.025 22.5028 523 88.502 477.5 81.5013C430.589 74.2834 381.474 -0.412785 334.013 0.00171861C281.425 0.460994 280.372 66.7035 232.512 88.5017Z" fill="#D9D9D9"/>
</svg>
