<svg width="751" height="484" viewBox="0 0 751 484" fill="none" xmlns="http://www.w3.org/2000/svg">
<path d="M269 101.431C189.101 143.356 78.4783 24.0491 38.9783 92.9307C5.35641 151.562 79.408 193.85 78.4783 261.431C77.225 352.525 -21.2094 348.4 5.5 435.5C41.9998 554.526 229.83 414.828 379.978 422.431C493.071 428.157 670.332 495.697 698.979 422.431C718.501 372.5 638.501 366.704 638.501 297C638.501 236.569 785.655 159 742.479 101.431C696.359 39.9384 594.318 108.278 519.001 92.9297C446.639 78.1837 440.713 -12.9269 368.478 2.43071C311.108 14.6279 320.936 74.1784 269 101.431Z" fill="#FCFCFC"/>
</svg>
