<svg width="50" height="60" viewBox="0 0 50 60" fill="none" xmlns="http://www.w3.org/2000/svg">
<g clip-path="url(#clip0_1117_695)">
<path d="M25.5328 19.5485C25.5328 19.5485 29.0008 29.8364 15.5124 36.8813C15.5124 36.8813 15.8009 43.5556 23.3177 43.2762C30.8325 42.9986 39.0232 38.9192 36.9997 28.1674C34.9763 17.4157 28.2321 17.2294 25.5348 19.5466L25.5328 19.5485Z" fill="#FFD200"/>
<g opacity="0.08">
<path d="M25.532 19.5426C25.532 19.5426 28.9999 29.8306 15.5115 36.8755C15.5115 36.8755 15.8 43.5497 23.3168 43.2703C30.8317 42.9927 39.0223 38.9133 36.9989 28.1616C34.9754 17.4098 28.2312 17.2235 25.5339 19.5408L25.532 19.5426Z" fill="#000001"/>
</g>
<path d="M45.0909 59.7737C45.0909 59.7737 38.0582 40.4942 45.5731 29.5562C53.0879 18.6181 50.7275 10.6475 40.8271 4.34393C30.9267 -1.95961 18.9796 6.47491 17.8237 17.0423L24.9532 16.1146L23.4119 21.3974L29.0001 21.1757L29.1937 26.5665L34.3966 26.505C34.3966 26.505 35.9379 41.3586 26.3028 40.7401L25.3385 36.0441L18.0154 38.516L15.3181 30.5807L13.8097 31.7449C11.2053 33.7567 9.28837 36.4707 8.31246 39.5442C6.5872 44.976 4.0758 53.839 3.94993 59.7737L45.0909 59.7737Z" fill="#FF6BE6"/>
<path d="M28.824 15.6693C24.8908 13.2036 23.5529 8.4728 25.8357 5.10271C28.1185 1.73262 33.1577 0.999469 37.0909 3.46516C41.0242 5.93085 42.3621 10.6617 40.0793 14.0318C37.7964 17.4019 32.7573 18.135 28.824 15.6693Z" fill="white"/>
<g opacity="0.08">
<path d="M46.7563 9.35547C46.7563 9.35547 48.2047 21.3422 42.8101 25.7905C37.4135 30.2387 32.1468 52.1148 33.3027 59.7763L45.0891 59.7763C45.0891 59.7763 40.3045 47.7262 43.0018 35.8009C43.0018 35.8009 43.1741 32.6733 47.585 26.2655C47.585 26.2655 53.3359 17.1436 46.7563 9.35547Z" fill="#000001"/>
</g>
<path d="M31.3587 39.0548C31.3587 39.0548 34.0115 33.7478 28.6169 30.8177C23.2204 27.8876 18.4996 31.1325 17.4405 24.3652C16.3813 17.5997 5.59019 14.5392 3.14127e-05 19.7307C3.14127e-05 19.7307 11.3701 17.7841 12.9114 25.6635C12.9114 25.6635 13.3936 29.4747 15.3202 30.5812L18.0175 38.5165L25.3406 36.0446L26.3049 40.7406C26.3049 40.7406 28.706 41.4168 31.3587 39.0548Z" fill="#FFB6C4"/>
<g opacity="0.08">
<path d="M29.0513 40.4781C29.0513 40.4781 30.4938 35.5363 27.6029 34.3311C24.712 33.1259 22.0631 34.9793 19.9912 32.5242C17.9194 30.0672 15.7526 29.4339 15.5106 26.5075C15.2705 23.5793 12.3544 20.7535 8.29587 20.3828C8.29587 20.3828 12.6429 21.9065 13.1134 26.7292C13.1134 26.7292 13.584 29.7077 15.317 30.5832L18.0143 38.5185L25.3374 36.0466L26.3017 40.7426C26.3017 40.7426 28.1586 40.8879 29.0493 40.4781L29.0513 40.4781Z" fill="#000001"/>
</g>
</g>
<defs>
<clipPath id="clip0_1117_695">
<rect width="50" height="60" fill="white"/>
</clipPath>
</defs>
</svg>
