<svg width="201" height="145" viewBox="0 0 201 145" fill="none" xmlns="http://www.w3.org/2000/svg">
<path d="M100.462 130.222C50.7866 130.222 10.5171 109.08 10.5171 82.9996C10.5171 56.9195 50.7866 35.7773 100.462 35.7773C150.137 35.7773 190.406 56.9195 190.406 82.9996C190.406 109.08 150.137 130.222 100.462 130.222Z" fill="#FCEF89"/>
<path opacity="0.38" d="M100.462 130.222C50.7866 130.222 10.5171 109.08 10.5171 82.9996C10.5171 56.9195 50.7866 35.7773 100.462 35.7773C150.137 35.7773 190.406 56.9195 190.406 82.9996C190.406 109.08 150.137 130.222 100.462 130.222Z" fill="#3A3A6C"/>
<path d="M100.462 124.333C50.7866 124.333 10.5171 103.191 10.5171 77.1109C10.5171 51.0308 50.7866 29.8887 100.462 29.8887C150.137 29.8887 190.406 51.0308 190.406 77.1109C190.406 103.191 150.137 124.333 100.462 124.333Z" fill="#A5A5A5"/>
<path d="M171.35 73.8342C168.62 73.8342 166.406 71.6205 166.406 68.8898C166.406 66.159 168.62 63.9453 171.35 63.9453C174.081 63.9453 176.295 66.159 176.295 68.8898C176.295 71.6205 174.081 73.8342 171.35 73.8342Z" fill="#FFCF49"/>
<path d="M30.1838 73.8887C27.4224 73.8887 25.1838 71.6501 25.1838 68.8887C25.1838 66.1272 27.4224 63.8887 30.1838 63.8887C32.9452 63.8887 35.1838 66.1272 35.1838 68.8887C35.1838 71.6501 32.9452 73.8887 30.1838 73.8887Z" fill="#FFCF49"/>
<path d="M161.406 97.0569C158.675 97.0569 156.462 94.8432 156.462 92.1124C156.462 89.3817 158.675 87.168 161.406 87.168C164.137 87.168 166.35 89.3817 166.35 92.1124C166.35 94.8432 164.137 97.0569 161.406 97.0569Z" fill="#FFCF49"/>
<path d="M139.628 107.945C136.867 107.945 134.628 105.707 134.628 102.945C134.628 100.184 136.867 97.9453 139.628 97.9453C142.39 97.9453 144.628 100.184 144.628 102.945C144.628 105.707 142.39 107.945 139.628 107.945Z" fill="#FFCF49"/>
<path d="M105.406 114.889C102.645 114.889 100.406 112.65 100.406 109.889C100.406 107.127 102.645 104.889 105.406 104.889C108.167 104.889 110.406 107.127 110.406 109.889C110.406 112.65 108.167 114.889 105.406 114.889Z" fill="#FFCF49"/>
<path d="M72.6838 109.945C69.9224 109.945 67.6838 107.707 67.6838 104.945C67.6838 102.184 69.9224 99.9453 72.6838 99.9453C75.4452 99.9453 77.6838 102.184 77.6838 104.945C77.6838 107.707 75.4452 109.945 72.6838 109.945Z" fill="#FFCF49"/>
<path d="M46.7949 94.4453C44.0335 94.4453 41.7949 92.2067 41.7949 89.4453C41.7949 86.6839 44.0335 84.4453 46.7949 84.4453C49.5563 84.4453 51.7949 86.6839 51.7949 89.4453C51.7949 92.2067 49.5563 94.4453 46.7949 94.4453Z" fill="#FFCF49"/>
<path d="M46.7949 55.834C44.0335 55.834 41.7949 53.5954 41.7949 50.834C41.7949 48.0726 44.0335 45.834 46.7949 45.834C49.5563 45.834 51.7949 48.0726 51.7949 50.834C51.7949 53.5954 49.5563 55.834 46.7949 55.834Z" fill="#FFCF49"/>
<path d="M152.795 55.7776C150.064 55.7776 147.85 53.5639 147.85 50.8331C147.85 48.1024 150.064 45.8887 152.795 45.8887C155.526 45.8887 157.739 48.1024 157.739 50.8331C157.739 53.5639 155.526 55.7776 152.795 55.7776Z" fill="#FFCF49"/>
<path d="M154.684 71.0004C154.684 71.0004 153.35 15.7227 100.462 15.7227C46.3504 15.7227 47.406 69.2226 47.406 69.2226C47.406 69.2226 49.7393 98.0004 101.573 98.0004C153.406 98.0004 154.684 71.0004 154.684 71.0004Z" fill="#FCEF89"/>
<path d="M67.4616 24.9453C66.1282 32.5564 65.2393 40.3342 66.0727 48.0009C67.0727 57.2231 70.906 65.7231 77.8504 72.0009C85.906 79.2786 96.7393 84.0564 107.239 86.612C119.239 89.4453 131.684 89.6675 143.739 87.2231C136.239 92.9453 123.295 97.9453 100.962 97.9453C49.1282 97.9453 46.7949 69.1675 46.7949 69.1675C46.7949 69.1675 46.2393 40.2231 67.4616 24.9453Z" fill="#5AD3C2"/>
<path d="M116.739 27.0562C117.962 24.945 120.517 24.5006 122.573 25.5006C130.739 29.5006 136.85 36.7784 139.406 45.5006C140.962 50.7784 132.739 53.0562 131.184 47.7784C129.239 41.1673 124.517 35.7784 118.295 32.8895C116.184 31.945 115.684 28.945 116.739 27.0562Z" fill="#99FFEB"/>
<path d="M68.906 55.8885C70.1838 54.1107 72.7949 57.9996 73.7949 58.8329C74.7949 59.6662 74.2949 53.6107 76.5171 54.1107C78.7393 54.6107 76.8504 59.1662 76.5171 61.1107C76.1838 63.0551 82.1838 80.2774 84.9616 75.5551C87.7393 70.8329 92.7393 65.944 92.7949 65.944C93.6282 65.3329 94.5171 64.7774 95.4616 64.2774L95.8505 64.0551L96.2393 63.8329L96.4616 63.7218C97.406 63.2774 98.3504 62.944 99.2949 62.6663L100.628 57.8885C94.5727 53.444 92.7393 43.6662 99.1838 38.6107C102.406 36.1107 106.85 35.444 110.128 38.1662C110.628 38.5551 111.073 39.0551 111.406 39.5551C113.906 43.1107 113.462 48.8329 112.239 52.6663C111.35 55.4996 108.962 60.2218 105.295 59.944H105.239L104.684 62.1662C107.128 62.3885 109.462 63.3885 111.295 65.0551C111.295 65.0551 117.073 70.3885 119.906 72.1662C122.739 73.944 125.295 63.3885 126.906 60.8329C128.517 58.2774 125.628 53.5551 128.184 52.7218C130.739 51.8885 128.017 55.4996 129.962 56.7774C131.906 58.0551 135.128 53.2218 135.128 55.944C135.128 58.6662 130.239 56.8885 130.128 59.9996C130.017 63.1107 125.239 79.4996 120.739 79.3329C118.462 79.2774 114.795 77.3885 111.684 75.5551C110.295 80.9996 108.073 87.6662 108.573 92.7218C108.739 94.5551 108.906 95.8329 109.128 97.8329C102.573 98.0551 98.0727 98.1662 92.1838 97.7774C91.2393 90.9996 90.7393 84.1662 90.5727 77.3329C88.7949 80.444 86.0171 83.944 82.906 83.2774C77.5727 82.1662 74.2949 65.1107 73.9616 63.3329C73.6282 61.5551 67.6282 57.7218 68.906 55.8885Z" fill="#400D20"/>
<path d="M102.962 43.4445C104.962 45.1112 105.795 48.6112 104.184 50.7223C102.017 53.6112 98.3504 46.389 98.4615 44.6668C98.6282 42.6668 100.85 42.1112 102.35 43.0001C102.573 43.1668 102.795 43.2779 102.962 43.4445Z" fill="#71E3D1"/>
<path d="M109.129 49.5557C109.129 49.5557 109.517 44.0557 111.462 43.889C112.851 43.7779 112.795 45.889 112.74 46.7779C112.629 47.9445 112.073 49.0001 111.184 49.7779C110.406 50.4445 108.851 51.2223 109.129 49.5557Z" fill="#71E3D1"/>
<path d="M107.35 51.6113H107.462C107.628 51.6113 107.795 51.778 107.795 51.9447C107.795 52.1113 107.628 52.278 107.462 52.278H107.35C107.184 52.278 107.017 52.1113 107.017 51.9447C107.017 51.778 107.184 51.6113 107.35 51.6113Z" fill="#71E3D1"/>
<path d="M106.073 51.5C106.239 51.5 106.406 51.6667 106.406 51.8333C106.406 52 106.239 52.1667 106.073 52.1667C105.906 52.1667 105.739 52 105.739 51.8333C105.739 51.6667 105.906 51.5 106.073 51.5Z" fill="#71E3D1"/>
</svg>
